ffmpeg started on 2016-12-12 at 10:13:24
Report written to "Output/theora/results/ffmpeg/old_town_cross_2160p5013000k.log"
Command line:
Tools/ffmpeg/ffmpeg -benchmark -y -i Input/y4m/old_town_cross_2160p50.y4m -c:v libtheora -b:v 13000k -an Output/theora/encoded/old_town_cross_2160p5013000k.mkv
ffmpeg version N-82227-gdb23fde Copyright (c) 2000-2016 the FFmpeg developers
  built with gcc 5.4.0 (Ubuntu 5.4.0-6ubuntu1~16.04.2) 20160609
  configuration: --prefix=/home/jaroslav/ffmpeg_build --pkg-config-flags=--static --extra-cflags=-I/home/jaroslav/ffmpeg_build/include --extra-ldflags=-L/home/jaroslav/ffmpeg_build/lib --bindir=/home/jaroslav/bin --enable-gpl --enable-libass --enable-libfdk-aac --enable-libfreetype --enable-libmp3lame --enable-libopus --enable-libtheora --enable-libvorbis --enable-libvpx --enable-libx264 --enable-libx265 --enable-nvenc --enable-libmfx --enable-libxvid --enable-libgsm --enable-libopencore-amrnb --enable-version3 --enable-nonfree
  libavutil      55. 35.100 / 55. 35.100
  libavcodec     57. 66.101 / 57. 66.101
  libavformat    57. 57.100 / 57. 57.100
  libavdevice    57.  2.100 / 57.  2.100
  libavfilter     6. 66.100 /  6. 66.100
  libswscale      4.  3.100 /  4.  3.100
  libswresample   2.  4.100 /  2.  4.100
  libpostproc    54.  2.100 / 54.  2.100
Input #0, yuv4mpegpipe, from 'Input/y4m/old_town_cross_2160p50.y4m':
  Duration: 00:00:10.00, start: 0.000000, bitrate: 4976642 kb/s
    Stream #0:0: Video: rawvideo (I420 / 0x30323449), yuv420p(progressive), 3840x2160, SAR 1:1 DAR 16:9, 50 fps, 50 tbr, 50 tbn, 50 tbc
Output #0, matroska, to 'Output/theora/encoded/old_town_cross_2160p5013000k.mkv':
  Metadata:
    encoder         : Lavf57.57.100
    Stream #0:0: Video: theora (libtheora) (theo / 0x6F656874), yuv420p, 3840x2160 [SAR 1:1 DAR 16:9], q=2-31, 13000 kb/s, 50 fps, 1k tbn, 50 tbc
    Metadata:
      encoder         : Lavc57.66.101 libtheora
Stream mapping:
  Stream #0:0 -> #0:0 (rawvideo (native) -> theora (libtheora))
Press [q] to stop, [?] for help
frame=    3 fps=0.0 q=-0.0 size=       4kB time=00:00:00.04 bitrate= 779.5kbits/s speed=0.0569x    frame=    5 fps=3.6 q=-0.0 size=       4kB time=00:00:00.08 bitrate= 394.6kbits/s speed=0.0587x    frame=    7 fps=3.5 q=-0.0 size=       4kB time=00:00:00.12 bitrate= 264.1kbits/s speed=0.0597x    frame=    9 fps=3.4 q=-0.0 size=       4kB time=00:00:00.16 bitrate= 198.5kbits/s speed=0.06x    frame=   11 fps=3.3 q=-0.0 size=       4kB time=00:00:00.20 bitrate= 159.0kbits/s speed=0.0603x    frame=   13 fps=3.3 q=-0.0 size=     314kB time=00:00:00.24 bitrate=10658.8kbits/s speed=0.0604x    frame=   15 fps=3.3 q=-0.0 size=     314kB time=00:00:00.28 bitrate=9141.6kbits/s speed=0.0621x    frame=   17 fps=3.3 q=-0.0 size=     314kB time=00:00:00.32 bitrate=8002.4kbits/s speed=0.0619x    frame=   19 fps=3.2 q=-0.0 size=     314kB time=00:00:00.36 bitrate=7115.7kbits/s speed=0.0615x    frame=   21 fps=3.2 q=-0.0 size=     314kB time=00:00:00.40 bitrate=6405.9kbits/s speed=0.0615x    frame=   23 fps=3.2 q=-0.0 size=     314kB time=00:00:00.44 bitrate=5824.9kbits/s speed=0.0613x    frame=   25 fps=3.2 q=-0.0 size=     725kB time=00:00:00.48 bitrate=12354.0kbits/s speed=0.0611x    frame=   27 fps=3.2 q=-0.0 size=     725kB time=00:00:00.52 bitrate=11405.5kbits/s speed=0.0619x    frame=   29 fps=3.2 q=-0.0 size=     725kB time=00:00:00.56 bitrate=10592.3kbits/s speed=0.0618x    frame=   31 fps=3.2 q=-0.0 size=     725kB time=00:00:00.60 bitrate=9887.3kbits/s speed=0.0616x    frame=   33 fps=3.2 q=-0.0 size=     725kB time=00:00:00.64 bitrate=9270.3kbits/s speed=0.0615x    frame=   35 fps=3.2 q=-0.0 size=     725kB time=00:00:00.68 bitrate=8725.8kbits/s speed=0.0613x    frame=   37 fps=3.1 q=-0.0 size=    1130kB time=00:00:00.72 bitrate=12838.2kbits/s speed=0.0613x    frame=   39 fps=3.2 q=-0.0 size=    1130kB time=00:00:00.76 bitrate=12163.4kbits/s speed=0.0619x    frame=   41 fps=3.2 q=-0.0 size=    1130kB time=00:00:00.80 bitrate=11556.0kbits/s speed=0.0618x    frame=   43 fps=3.2 q=-0.0 size=    1130kB time=00:00:00.84 bitrate=11006.3kbits/s speed=0.0617x    frame=   45 fps=3.2 q=-0.0 size=    1130kB time=00:00:00.88 bitrate=10506.6kbits/s speed=0.0617x    frame=   46 fps=3.1 q=-0.0 size=    1130kB time=00:00:00.90 bitrate=10273.4kbits/s speed=0.0603x    frame=   48 fps=3.1 q=-0.0 size=    1130kB time=00:00:00.94 bitrate=9836.7kbits/s speed=0.0603x    frame=   50 fps=3.1 q=-0.0 size=    1495kB time=00:00:00.98 bitrate=12482.4kbits/s speed=0.0608x    frame=   52 fps=3.1 q=-0.0 size=    1495kB time=00:00:01.02 bitrate=11993.4kbits/s speed=0.0608x    frame=   54 fps=3.1 q=-0.0 size=    1495kB time=00:00:01.06 bitrate=11541.2kbits/s speed=0.0608x    frame=   56 fps=3.1 q=-0.0 size=    1495kB time=00:00:01.10 bitrate=11121.9kbits/s speed=0.0608x    frame=   58 fps=3.1 q=-0.0 size=    1495kB time=00:00:01.14 bitrate=10732.0kbits/s speed=0.0607x    frame=   60 fps=3.1 q=-0.0 size=    1495kB time=00:00:01.18 bitrate=10368.6kbits/s speed=0.0607x    frame=   62 fps=3.1 q=-0.0 size=    1892kB time=00:00:01.22 bitrate=12695.5kbits/s speed=0.0611x    frame=   64 fps=3.1 q=-0.0 size=    1892kB time=00:00:01.26 bitrate=12292.8kbits/s speed=0.0611x    frame=   66 fps=3.1 q=-0.0 size=    1892kB time=00:00:01.30 bitrate=11914.8kbits/s speed=0.0611x    frame=   68 fps=3.1 q=-0.0 size=    1892kB time=00:00:01.34 bitrate=11559.4kbits/s speed=0.061x    frame=   70 fps=3.1 q=-0.0 size=    1892kB time=00:00:01.38 bitrate=11224.6kbits/s speed=0.061x    frame=   72 fps=3.1 q=-0.0 size=    1892kB time=00:00:01.42 bitrate=10908.6kbits/s speed=0.061x    frame=   74 fps=3.1 q=-0.0 size=    2288kB time=00:00:01.46 bitrate=12826.9kbits/s speed=0.0612x    frame=   76 fps=3.1 q=-0.0 size=    2288kB time=00:00:01.50 bitrate=12485.1kbits/s speed=0.0613x    frame=   78 fps=3.1 q=-0.0 size=    2288kB time=00:00:01.54 bitrate=12161.0kbits/s speed=0.0613x    frame=   80 fps=3.1 q=-0.0 size=    2288kB time=00:00:01.58 bitrate=11853.4kbits/s speed=0.0612x    frame=   82 fps=3.1 q=-0.0 size=    2288kB time=00:00:01.62 bitrate=11560.9kbits/s speed=0.0612x    frame=   84 fps=3.1 q=-0.0 size=    2288kB time=00:00:01.66 bitrate=11282.5kbits/s speed=0.0612x    frame=   86 fps=3.1 q=-0.0 size=    2649kB time=00:00:01.70 bitrate=12757.2kbits/s speed=0.0614x    frame=   88 fps=3.1 q=-0.0 size=    2649kB time=00:00:01.74 bitrate=12464.1kbits/s speed=0.0614x    frame=   90 fps=3.1 q=-0.0 size=    2649kB time=00:00:01.78 bitrate=12184.2kbits/s speed=0.0614x    frame=   92 fps=3.1 q=-0.0 size=    2649kB time=00:00:01.82 bitrate=11916.5kbits/s speed=0.0614x    frame=   94 fps=3.1 q=-0.0 size=    2649kB time=00:00:01.86 bitrate=11660.4kbits/s speed=0.0613x    frame=   96 fps=3.1 q=-0.0 size=    2649kB time=00:00:01.90 bitrate=11415.1kbits/s speed=0.0613x    frame=   98 fps=3.1 q=-0.0 size=    3048kB time=00:00:01.94 bitrate=12865.8kbits/s speed=0.0615x    frame=  100 fps=3.1 q=-0.0 size=    3048kB time=00:00:01.98 bitrate=12606.0kbits/s speed=0.0609x    frame=  102 fps=3.1 q=-0.0 size=    3048kB time=00:00:02.02 bitrate=12356.5kbits/s speed=0.0609x    frame=  104 fps=3.1 q=-0.0 size=    3048kB time=00:00:02.06 bitrate=12116.7kbits/s speed=0.0608x    frame=  106 fps=3.1 q=-0.0 size=    3048kB time=00:00:02.10 bitrate=11886.0kbits/s speed=0.0608x    frame=  108 fps=3.1 q=-0.0 size=    3048kB time=00:00:02.14 bitrate=11663.9kbits/s speed=0.0608x    frame=  110 fps=3.1 q=-0.0 size=    3437kB time=00:00:02.18 bitrate=12911.3kbits/s speed=0.061x    frame=  112 fps=3.1 q=-0.0 size=    3437kB time=00:00:02.22 bitrate=12678.7kbits/s speed=0.061x    frame=  114 fps=3.1 q=-0.0 size=    3437kB time=00:00:02.26 bitrate=12454.4kbits/s speed=0.061x    frame=  116 fps=3.1 q=-0.0 size=    3437kB time=00:00:02.30 bitrate=12237.9kbits/s speed=0.061x    frame=  118 fps=3.1 q=-0.0 size=    3437kB time=00:00:02.34 bitrate=12028.8kbits/s speed=0.061x    frame=  120 fps=3.1 q=-0.0 size=    3437kB time=00:00:02.38 bitrate=11826.7kbits/s speed=0.061x    frame=  122 fps=3.1 q=-0.0 size=    3814kB time=00:00:02.42 bitrate=12906.1kbits/s speed=0.0606x    frame=  124 fps=3.1 q=-0.0 size=    3814kB time=00:00:02.46 bitrate=12696.4kbits/s speed=0.0607x    frame=  126 fps=3.1 q=-0.0 size=    3814kB time=00:00:02.50 bitrate=12493.3kbits/s speed=0.0607x    frame=  128 fps=3.1 q=-0.0 size=    3814kB time=00:00:02.54 bitrate=12296.6kbits/s speed=0.0606x    frame=  130 fps=3.1 q=-0.0 size=    3814kB time=00:00:02.58 bitrate=12106.1kbits/s speed=0.0606x    frame=  132 fps=3.1 q=-0.0 size=    3814kB time=00:00:02.62 bitrate=11921.3kbits/s speed=0.0606x    frame=  134 fps=3.1 q=-0.0 size=    4202kB time=00:00:02.66 bitrate=12937.5kbits/s speed=0.0608x    frame=  136 fps=3.1 q=-0.0 size=    4202kB time=00:00:02.70 bitrate=12745.9kbits/s speed=0.0608x    frame=  138 fps=3.1 q=-0.0 size=    4202kB time=00:00:02.74 bitrate=12559.9kbits/s speed=0.0608x    frame=  140 fps=3.1 q=-0.0 size=    4202kB time=00:00:02.78 bitrate=12379.3kbits/s speed=0.0608x    frame=  142 fps=3.1 q=-0.0 size=    4202kB time=00:00:02.82 bitrate=12203.7kbits/s speed=0.0608x    frame=  144 fps=3.1 q=-0.0 size=    4202kB time=00:00:02.86 bitrate=12033.1kbits/s speed=0.0608x    frame=  145 fps=3.0 q=-0.0 size=    4600kB time=00:00:02.88 bitrate=13080.2kbits/s speed=0.0604x    frame=  147 fps=3.0 q=-0.0 size=    4600kB time=00:00:02.92 bitrate=12901.1kbits/s speed=0.0606x    frame=  149 fps=3.0 q=-0.0 size=    4600kB time=00:00:02.96 bitrate=12726.8kbits/s speed=0.0606x    frame=  151 fps=3.0 q=-0.0 size=    4600kB time=00:00:03.00 bitrate=12557.2kbits/s speed=0.0606x    frame=  153 fps=3.0 q=-0.0 size=    4600kB time=00:00:03.04 bitrate=12392.0kbits/s speed=0.0606x    frame=  155 fps=3.0 q=-0.0 size=    4600kB time=00:00:03.08 bitrate=12231.2kbits/s speed=0.0606x    frame=  157 fps=3.0 q=-0.0 size=    4966kB time=00:00:03.12 bitrate=13035.9kbits/s speed=0.0606x    frame=  159 fps=3.1 q=-0.0 size=    4966kB time=00:00:03.16 bitrate=12870.9kbits/s speed=0.0608x    frame=  161 fps=3.1 q=-0.0 size=    4966kB time=00:00:03.20 bitrate=12710.1kbits/s speed=0.0608x    frame=  163 fps=3.1 q=-0.0 size=    4966kB time=00:00:03.24 bitrate=12553.2kbits/s speed=0.0607x    frame=  165 fps=3.1 q=-0.0 size=    4966kB time=00:00:03.28 bitrate=12400.2kbits/s speed=0.0607x    frame=  167 fps=3.1 q=-0.0 size=    4966kB time=00:00:03.32 bitrate=12250.8kbits/s speed=0.0607x    frame=  169 fps=3.1 q=-0.0 size=    5333kB time=00:00:03.36 bitrate=12997.4kbits/s speed=0.0607x    frame=  171 fps=3.1 q=-0.0 size=    5333kB time=00:00:03.40 bitrate=12844.5kbits/s speed=0.0608x    frame=  173 fps=3.1 q=-0.0 size=    5333kB time=00:00:03.44 bitrate=12695.2kbits/s speed=0.0608x    frame=  175 fps=3.1 q=-0.0 size=    5333kB time=00:00:03.48 bitrate=12549.3kbits/s speed=0.0608x    frame=  177 fps=3.1 q=-0.0 size=    5333kB time=00:00:03.52 bitrate=12406.8kbits/s speed=0.0608x    frame=  179 fps=3.1 q=-0.0 size=    5333kB time=00:00:03.56 bitrate=12267.4kbits/s speed=0.0608x    frame=  181 fps=3.1 q=-0.0 size=    5722kB time=00:00:03.60 bitrate=13017.3kbits/s speed=0.0608x    frame=  183 fps=3.1 q=-0.0 size=    5722kB time=00:00:03.64 bitrate=12874.3kbits/s speed=0.0609x    frame=  185 fps=3.1 q=-0.0 size=    5722kB time=00:00:03.68 bitrate=12734.4kbits/s speed=0.0609x    frame=  187 fps=3.1 q=-0.0 size=    5722kB time=00:00:03.72 bitrate=12597.5kbits/s speed=0.0609x    frame=  189 fps=3.1 q=-0.0 size=    5722kB time=00:00:03.76 bitrate=12463.6kbits/s speed=0.0609x    frame=  191 fps=3.1 q=-0.0 size=    5722kB time=00:00:03.80 bitrate=12332.4kbits/s speed=0.0609x    frame=  193 fps=3.1 q=-0.0 size=    6104kB time=00:00:03.84 bitrate=13018.7kbits/s speed=0.0609x    frame=  195 fps=3.1 q=-0.0 size=    6104kB time=00:00:03.88 bitrate=12884.6kbits/s speed=0.0607x    frame=  197 fps=3.1 q=-0.0 size=    6104kB time=00:00:03.92 bitrate=12753.1kbits/s speed=0.0607x    frame=  199 fps=3.0 q=-0.0 size=    6104kB time=00:00:03.96 bitrate=12624.3kbits/s speed=0.0607x    frame=  201 fps=3.0 q=-0.0 size=    6104kB time=00:00:04.00 bitrate=12498.1kbits/s speed=0.0607x    frame=  203 fps=3.0 q=-0.0 size=    6104kB time=00:00:04.04 bitrate=12374.4kbits/s speed=0.0607x    frame=  205 fps=3.0 q=-0.0 size=    6497kB time=00:00:04.08 bitrate=13041.7kbits/s speed=0.0607x    frame=  207 fps=3.1 q=-0.0 size=    6497kB time=00:00:04.12 bitrate=12915.2kbits/s speed=0.0608x    frame=  209 fps=3.1 q=-0.0 size=    6497kB time=00:00:04.16 bitrate=12791.0kbits/s speed=0.0608x    frame=  211 fps=3.1 q=-0.0 size=    6497kB time=00:00:04.20 bitrate=12669.2kbits/s speed=0.0608x    frame=  213 fps=3.1 q=-0.0 size=    6497kB time=00:00:04.24 bitrate=12549.7kbits/s speed=0.0608x    frame=  215 fps=3.1 q=-0.0 size=    6497kB time=00:00:04.28 bitrate=12432.5kbits/s speed=0.0608x    frame=  217 fps=3.1 q=-0.0 size=    6881kB time=00:00:04.32 bitrate=13045.2kbits/s speed=0.0608x    frame=  219 fps=3.1 q=-0.0 size=    6881kB time=00:00:04.36 bitrate=12925.6kbits/s speed=0.0609x    frame=  221 fps=3.1 q=-0.0 size=    6881kB time=00:00:04.40 bitrate=12808.1kbits/s speed=0.0609x    frame=  223 fps=3.1 q=-0.0 size=    6881kB time=00:00:04.44 bitrate=12692.7kbits/s speed=0.0609x    frame=  225 fps=3.1 q=-0.0 size=    6881kB time=00:00:04.48 bitrate=12579.4kbits/s speed=0.0609x    frame=  227 fps=3.1 q=-0.0 size=    6881kB time=00:00:04.52 bitrate=12468.1kbits/s speed=0.0609x    frame=  229 fps=3.1 q=-0.0 size=    7262kB time=00:00:04.56 bitrate=13043.1kbits/s speed=0.0609x    frame=  231 fps=3.1 q=-0.0 size=    7262kB time=00:00:04.60 bitrate=12929.7kbits/s speed=0.061x    frame=  233 fps=3.1 q=-0.0 size=    7262kB time=00:00:04.64 bitrate=12818.2kbits/s speed=0.061x    frame=  235 fps=3.1 q=-0.0 size=    7262kB time=00:00:04.68 bitrate=12708.7kbits/s speed=0.061x    frame=  237 fps=3.1 q=-0.0 size=    7262kB time=00:00:04.72 bitrate=12601.0kbits/s speed=0.061x    frame=  239 fps=3.1 q=-0.0 size=    7262kB time=00:00:04.76 bitrate=12495.2kbits/s speed=0.0609x    frame=  241 fps=3.1 q=-0.0 size=    7648kB time=00:00:04.80 bitrate=13049.3kbits/s speed=0.0609x    frame=  243 fps=3.1 q=-0.0 size=    7648kB time=00:00:04.84 bitrate=12941.5kbits/s speed=0.061x    frame=  245 fps=3.1 q=-0.0 size=    7648kB time=00:00:04.88 bitrate=12835.4kbits/s speed=0.061x    frame=  247 fps=3.1 q=-0.0 size=    7648kB time=00:00:04.92 bitrate=12731.1kbits/s speed=0.061x    frame=  249 fps=3.1 q=-0.0 size=    7648kB time=00:00:04.96 bitrate=12628.4kbits/s speed=0.061x    frame=  251 fps=3.1 q=-0.0 size=    7648kB time=00:00:05.00 bitrate=12527.4kbits/s speed=0.061x    frame=  253 fps=3.1 q=-0.0 size=    8027kB time=00:00:05.04 bitrate=13044.8kbits/s speed=0.061x    frame=  255 fps=3.1 q=-0.0 size=    8027kB time=00:00:05.08 bitrate=12942.1kbits/s speed=0.0611x    frame=  257 fps=3.1 q=-0.0 size=    8027kB time=00:00:05.12 bitrate=12841.0kbits/s speed=0.0611x    frame=  259 fps=3.1 q=-0.0 size=    8027kB time=00:00:05.16 bitrate=12741.5kbits/s speed=0.0611x    frame=  261 fps=3.1 q=-0.0 size=    8027kB time=00:00:05.20 bitrate=12643.5kbits/s speed=0.0611x    frame=  263 fps=3.1 q=-0.0 size=    8027kB time=00:00:05.24 bitrate=12547.0kbits/s speed=0.0611x    frame=  265 fps=3.1 q=-0.0 size=    8397kB time=00:00:05.28 bitrate=13026.0kbits/s speed=0.0611x    frame=  267 fps=3.1 q=-0.0 size=    8397kB time=00:00:05.32 bitrate=12928.1kbits/s speed=0.0612x    frame=  269 fps=3.1 q=-0.0 size=    8397kB time=00:00:05.36 bitrate=12831.6kbits/s speed=0.0612x    frame=  271 fps=3.1 q=-0.0 size=    8397kB time=00:00:05.40 bitrate=12736.6kbits/s speed=0.0611x    frame=  273 fps=3.1 q=-0.0 size=    8397kB time=00:00:05.44 bitrate=12642.9kbits/s speed=0.0611x    frame=  275 fps=3.1 q=-0.0 size=    8397kB time=00:00:05.48 bitrate=12550.7kbits/s speed=0.0611x    frame=  277 fps=3.1 q=-0.0 size=    8805kB time=00:00:05.52 bitrate=13064.4kbits/s speed=0.0611x    frame=  279 fps=3.1 q=-0.0 size=    8805kB time=00:00:05.56 bitrate=12970.5kbits/s speed=0.0612x    frame=  281 fps=3.1 q=-0.0 size=    8805kB time=00:00:05.60 bitrate=12877.8kbits/s speed=0.0612x    frame=  283 fps=3.1 q=-0.0 size=    8805kB time=00:00:05.64 bitrate=12786.5kbits/s speed=0.0612x    frame=  285 fps=3.1 q=-0.0 size=    8805kB time=00:00:05.68 bitrate=12696.5kbits/s speed=0.0612x    frame=  287 fps=3.1 q=-0.0 size=    8805kB time=00:00:05.72 bitrate=12607.7kbits/s speed=0.0611x    frame=  289 fps=3.1 q=-0.0 size=    9198kB time=00:00:05.76 bitrate=13079.3kbits/s speed=0.0611x    frame=  291 fps=3.1 q=-0.0 size=    9198kB time=00:00:05.80 bitrate=12989.1kbits/s speed=0.0612x    frame=  293 fps=3.1 q=-0.0 size=    9198kB time=00:00:05.84 bitrate=12900.1kbits/s speed=0.0612x    frame=  295 fps=3.1 q=-0.0 size=    9198kB time=00:00:05.88 bitrate=12812.4kbits/s speed=0.0612x    frame=  297 fps=3.1 q=-0.0 size=    9198kB time=00:00:05.92 bitrate=12725.8kbits/s speed=0.0612x    frame=  299 fps=3.1 q=-0.0 size=    9198kB time=00:00:05.96 bitrate=12640.4kbits/s speed=0.0612x    frame=  301 fps=3.1 q=-0.0 size=    9547kB time=00:00:06.00 bitrate=13032.2kbits/s speed=0.0612x    frame=  303 fps=3.1 q=-0.0 size=    9547kB time=00:00:06.04 bitrate=12945.9kbits/s speed=0.0613x    frame=  305 fps=3.1 q=-0.0 size=    9547kB time=00:00:06.08 bitrate=12860.7kbits/s speed=0.0613x    frame=  307 fps=3.1 q=-0.0 size=    9547kB time=00:00:06.12 bitrate=12776.7kbits/s speed=0.0613x    frame=  309 fps=3.1 q=-0.0 size=    9547kB time=00:00:06.16 bitrate=12693.8kbits/s speed=0.0613x    frame=  311 fps=3.1 q=-0.0 size=    9547kB time=00:00:06.20 bitrate=12611.9kbits/s speed=0.0612x    frame=  313 fps=3.1 q=-0.0 size=    9925kB time=00:00:06.24 bitrate=13027.6kbits/s speed=0.0612x    frame=  315 fps=3.1 q=-0.0 size=    9925kB time=00:00:06.28 bitrate=12944.7kbits/s speed=0.0613x    frame=  317 fps=3.1 q=-0.0 size=    9925kB time=00:00:06.32 bitrate=12862.7kbits/s speed=0.0613x    frame=  319 fps=3.1 q=-0.0 size=    9925kB time=00:00:06.36 bitrate=12781.9kbits/s speed=0.0613x    frame=  321 fps=3.1 q=-0.0 size=    9925kB time=00:00:06.40 bitrate=12702.0kbits/s speed=0.0613x    frame=  323 fps=3.1 q=-0.0 size=    9925kB time=00:00:06.44 bitrate=12623.1kbits/s speed=0.0613x    frame=  325 fps=3.1 q=-0.0 size=   10309kB time=00:00:06.48 bitrate=13030.7kbits/s speed=0.0613x    frame=  327 fps=3.1 q=-0.0 size=   10309kB time=00:00:06.52 bitrate=12950.7kbits/s speed=0.0613x    frame=  329 fps=3.1 q=-0.0 size=   10309kB time=00:00:06.56 bitrate=12871.8kbits/s speed=0.0613x    frame=  331 fps=3.1 q=-0.0 size=   10309kB time=00:00:06.60 bitrate=12793.8kbits/s speed=0.0613x    frame=  333 fps=3.1 q=-0.0 size=   10309kB time=00:00:06.64 bitrate=12716.7kbits/s speed=0.0613x    frame=  335 fps=3.1 q=-0.0 size=   10309kB time=00:00:06.68 bitrate=12640.6kbits/s speed=0.0613x    frame=  337 fps=3.1 q=-0.0 size=   10683kB time=00:00:06.72 bitrate=13020.7kbits/s speed=0.0613x    frame=  339 fps=3.1 q=-0.0 size=   10683kB time=00:00:06.76 bitrate=12943.7kbits/s speed=0.0613x    frame=  341 fps=3.1 q=-0.0 size=   10683kB time=00:00:06.80 bitrate=12867.6kbits/s speed=0.0613x    frame=  343 fps=3.1 q=-0.0 size=   10683kB time=00:00:06.84 bitrate=12792.3kbits/s speed=0.0613x    frame=  345 fps=3.1 q=-0.0 size=   10683kB time=00:00:06.88 bitrate=12718.0kbits/s speed=0.0613x    frame=  347 fps=3.1 q=-0.0 size=   10683kB time=00:00:06.92 bitrate=12644.5kbits/s speed=0.0613x    frame=  349 fps=3.1 q=-0.0 size=   11068kB time=00:00:06.96 bitrate=13024.8kbits/s speed=0.0613x    frame=  351 fps=3.1 q=-0.0 size=   11068kB time=00:00:07.00 bitrate=12950.4kbits/s speed=0.0614x    frame=  353 fps=3.1 q=-0.0 size=   11068kB time=00:00:07.04 bitrate=12876.8kbits/s speed=0.0614x    frame=  355 fps=3.1 q=-0.0 size=   11068kB time=00:00:07.08 bitrate=12804.1kbits/s speed=0.0613x    frame=  357 fps=3.1 q=-0.0 size=   11068kB time=00:00:07.12 bitrate=12732.2kbits/s speed=0.0613x    frame=  359 fps=3.1 q=-0.0 size=   11068kB time=00:00:07.16 bitrate=12661.1kbits/s speed=0.0613x    frame=  361 fps=3.1 q=-0.0 size=   11453kB time=00:00:07.20 bitrate=13029.3kbits/s speed=0.0613x    frame=  363 fps=3.1 q=-0.0 size=   11453kB time=00:00:07.24 bitrate=12957.4kbits/s speed=0.0614x    frame=  365 fps=3.1 q=-0.0 size=   11453kB time=00:00:07.28 bitrate=12886.2kbits/s speed=0.0614x    frame=  367 fps=3.1 q=-0.0 size=   11453kB time=00:00:07.32 bitrate=12815.8kbits/s speed=0.0614x    frame=  369 fps=3.1 q=-0.0 size=   11453kB time=00:00:07.36 bitrate=12746.1kbits/s speed=0.0614x    frame=  371 fps=3.1 q=-0.0 size=   11453kB time=00:00:07.40 bitrate=12677.2kbits/s speed=0.0614x    frame=  373 fps=3.1 q=-0.0 size=   11830kB time=00:00:07.44 bitrate=13023.5kbits/s speed=0.0613x    frame=  375 fps=3.1 q=-0.0 size=   11830kB time=00:00:07.48 bitrate=12953.9kbits/s speed=0.0614x    frame=  377 fps=3.1 q=-0.0 size=   11830kB time=00:00:07.52 bitrate=12885.0kbits/s speed=0.0614x    frame=  379 fps=3.1 q=-0.0 size=   11830kB time=00:00:07.56 bitrate=12816.8kbits/s speed=0.0614x    frame=  381 fps=3.1 q=-0.0 size=   11830kB time=00:00:07.60 bitrate=12749.4kbits/s speed=0.0614x    frame=  383 fps=3.1 q=-0.0 size=   11830kB time=00:00:07.64 bitrate=12682.6kbits/s speed=0.0614x    frame=  385 fps=3.1 q=-0.0 size=   12202kB time=00:00:07.68 bitrate=13013.7kbits/s speed=0.0614x    frame=  387 fps=3.1 q=-0.0 size=   12202kB time=00:00:07.72 bitrate=12946.3kbits/s speed=0.0614x    frame=  389 fps=3.1 q=-0.0 size=   12202kB time=00:00:07.76 bitrate=12879.6kbits/s speed=0.0613x    frame=  391 fps=3.1 q=-0.0 size=   12202kB time=00:00:07.80 bitrate=12813.5kbits/s speed=0.0613x    frame=  393 fps=3.1 q=-0.0 size=   12202kB time=00:00:07.84 bitrate=12748.2kbits/s speed=0.0613x    frame=  395 fps=3.1 q=-0.0 size=   12202kB time=00:00:07.88 bitrate=12683.5kbits/s speed=0.0613x    frame=  397 fps=3.1 q=-0.0 size=   12599kB time=00:00:07.92 bitrate=13029.5kbits/s speed=0.0613x    frame=  399 fps=3.1 q=-0.0 size=   12599kB time=00:00:07.96 bitrate=12964.1kbits/s speed=0.0613x    frame=  401 fps=3.1 q=-0.0 size=   12599kB time=00:00:08.00 bitrate=12899.3kbits/s speed=0.0613x    frame=  403 fps=3.1 q=-0.0 size=   12599kB time=00:00:08.04 bitrate=12835.1kbits/s speed=0.0613x    frame=  405 fps=3.1 q=-0.0 size=   12599kB time=00:00:08.08 bitrate=12771.6kbits/s speed=0.0613x    frame=  407 fps=3.1 q=-0.0 size=   12599kB time=00:00:08.12 bitrate=12708.6kbits/s speed=0.0613x    frame=  409 fps=3.1 q=-0.0 size=   12965kB time=00:00:08.16 bitrate=13014.3kbits/s speed=0.0613x    frame=  411 fps=3.1 q=-0.0 size=   12965kB time=00:00:08.20 bitrate=12950.8kbits/s speed=0.0614x    frame=  413 fps=3.1 q=-0.0 size=   12965kB time=00:00:08.24 bitrate=12888.0kbits/s speed=0.0614x    frame=  415 fps=3.1 q=-0.0 size=   12965kB time=00:00:08.28 bitrate=12825.7kbits/s speed=0.0614x    frame=  417 fps=3.1 q=-0.0 size=   12965kB time=00:00:08.32 bitrate=12764.0kbits/s speed=0.0613x    frame=  419 fps=3.1 q=-0.0 size=   12965kB time=00:00:08.36 bitrate=12703.0kbits/s speed=0.0613x    frame=  421 fps=3.1 q=-0.0 size=   13351kB time=00:00:08.40 bitrate=13018.5kbits/s speed=0.0613x    frame=  423 fps=3.1 q=-0.0 size=   13351kB time=00:00:08.44 bitrate=12956.8kbits/s speed=0.0614x    frame=  425 fps=3.1 q=-0.0 size=   13351kB time=00:00:08.48 bitrate=12895.7kbits/s speed=0.0614x    frame=  427 fps=3.1 q=-0.0 size=   13351kB time=00:00:08.52 bitrate=12835.2kbits/s speed=0.0614x    frame=  429 fps=3.1 q=-0.0 size=   13351kB time=00:00:08.56 bitrate=12775.2kbits/s speed=0.0614x    frame=  431 fps=3.1 q=-0.0 size=   13351kB time=00:00:08.60 bitrate=12715.8kbits/s speed=0.0614x    frame=  433 fps=3.1 q=-0.0 size=   13730kB time=00:00:08.64 bitrate=13017.0kbits/s speed=0.0614x    frame=  435 fps=3.1 q=-0.0 size=   13730kB time=00:00:08.68 bitrate=12957.0kbits/s speed=0.0614x    frame=  437 fps=3.1 q=-0.0 size=   13730kB time=00:00:08.72 bitrate=12897.6kbits/s speed=0.0614x    frame=  439 fps=3.1 q=-0.0 size=   13730kB time=00:00:08.76 bitrate=12838.7kbits/s speed=0.0614x    frame=  441 fps=3.1 q=-0.0 size=   13730kB time=00:00:08.80 bitrate=12780.3kbits/s speed=0.0614x    frame=  443 fps=3.1 q=-0.0 size=   13730kB time=00:00:08.84 bitrate=12722.5kbits/s speed=0.0614x    frame=  445 fps=3.1 q=-0.0 size=   14124kB time=00:00:08.88 bitrate=13028.5kbits/s speed=0.0614x    frame=  448 fps=3.1 q=-0.0 size=   14124kB time=00:00:08.94 bitrate=12941.0kbits/s speed=0.0615x    frame=  450 fps=3.1 q=-0.0 size=   14124kB time=00:00:08.98 bitrate=12883.4kbits/s speed=0.0615x    frame=  452 fps=3.1 q=-0.0 size=   14124kB time=00:00:09.02 bitrate=12826.3kbits/s speed=0.0615x    frame=  454 fps=3.1 q=-0.0 size=   14124kB time=00:00:09.06 bitrate=12769.6kbits/s speed=0.0614x    frame=  456 fps=3.1 q=-0.0 size=   14124kB time=00:00:09.10 bitrate=12713.5kbits/s speed=0.0614x    frame=  458 fps=3.1 q=-0.0 size=   14491kB time=00:00:09.14 bitrate=12986.8kbits/s speed=0.0615x    frame=  460 fps=3.1 q=-0.0 size=   14491kB time=00:00:09.18 bitrate=12930.2kbits/s speed=0.0615x    frame=  462 fps=3.1 q=-0.0 size=   14491kB time=00:00:09.22 bitrate=12874.1kbits/s speed=0.0615x    frame=  464 fps=3.1 q=-0.0 size=   14491kB time=00:00:09.26 bitrate=12818.5kbits/s speed=0.0615x    frame=  466 fps=3.1 q=-0.0 size=   14491kB time=00:00:09.30 bitrate=12763.4kbits/s speed=0.0615x    frame=  468 fps=3.1 q=-0.0 size=   14491kB time=00:00:09.34 bitrate=12708.7kbits/s speed=0.0615x    frame=  470 fps=3.1 q=-0.0 size=   14893kB time=00:00:09.38 bitrate=13005.0kbits/s speed=0.0615x    frame=  472 fps=3.1 q=-0.0 size=   14893kB time=00:00:09.42 bitrate=12949.8kbits/s speed=0.0615x    frame=  474 fps=3.1 q=-0.0 size=   14893kB time=00:00:09.46 bitrate=12895.0kbits/s speed=0.0615x    frame=  476 fps=3.1 q=-0.0 size=   14893kB time=00:00:09.50 bitrate=12840.7kbits/s speed=0.0615x    frame=  478 fps=3.1 q=-0.0 size=   14893kB time=00:00:09.54 bitrate=12786.9kbits/s speed=0.0615x    frame=  480 fps=3.1 q=-0.0 size=   14893kB time=00:00:09.58 bitrate=12733.5kbits/s speed=0.0615x    frame=  482 fps=3.1 q=-0.0 size=   15251kB time=00:00:09.62 bitrate=12985.9kbits/s speed=0.0615x    frame=  484 fps=3.1 q=-0.0 size=   15251kB time=00:00:09.66 bitrate=12932.1kbits/s speed=0.0615x    frame=  486 fps=3.1 q=-0.0 size=   15251kB time=00:00:09.70 bitrate=12878.8kbits/s speed=0.0615x    frame=  488 fps=3.1 q=-0.0 size=   15251kB time=00:00:09.74 bitrate=12825.9kbits/s speed=0.0615x    frame=  490 fps=3.1 q=-0.0 size=   15251kB time=00:00:09.78 bitrate=12773.5kbits/s speed=0.0615x    frame=  492 fps=3.1 q=-0.0 size=   15251kB time=00:00:09.82 bitrate=12721.4kbits/s speed=0.0615x    frame=  494 fps=3.1 q=-0.0 size=   15645kB time=00:00:09.86 bitrate=12996.8kbits/s speed=0.0616x    frame=  496 fps=3.1 q=-0.0 size=   15645kB time=00:00:09.90 bitrate=12944.3kbits/s speed=0.0616x    frame=  498 fps=3.1 q=-0.0 size=   15645kB time=00:00:09.94 bitrate=12892.2kbits/s speed=0.0615x    frame=  500 fps=3.1 q=-0.0 size=   15645kB time=00:00:09.98 bitrate=12840.6kbits/s speed=0.0615x    frame=  500 fps=3.1 q=-0.0 Lsize=   15924kB time=00:00:09.98 bitrate=13070.1kbits/s speed=0.0614x    
video:15915kB audio:0kB subtitle:0kB other streams:0kB global headers:3kB muxing overhead: 0.059392%
bench: utime=148.088s
bench: maxrss=246804kB
